<?xml version="1.0" encoding="UTF-8"?><svg id="Layer_1" xmlns="http://www.w3.org/2000/svg" xmlns:xlink="http://www.w3.org/1999/xlink" viewBox="0 0 1195 373.44"><defs><style>.cls-1{fill:#cc716a;}.cls-2{fill:#d9c16f;}.cls-3{fill:#ce8c6a;}.cls-4{fill:url(#linear-gradient);}</style><linearGradient id="linear-gradient" x1="160.64" y1="186.75" x2="682.64" y2="186.75" gradientUnits="userSpaceOnUse"><stop offset=".19" stop-color="#d9c16f"/><stop offset=".23" stop-color="#d7b86e"/><stop offset=".37" stop-color="#d3a46b"/><stop offset=".52" stop-color="#d0956a"/><stop offset=".7" stop-color="#ce8d69"/><stop offset="1" stop-color="#ce8b69"/></linearGradient></defs><polygon class="cls-4" points="48.13 373.44 445.29 373.44 570.13 .05 462.84 .05 366.24 288.97 96.3 288.97 48.13 373.44"/><polygon class="cls-2" points="135.53 288.97 155.59 228.98 300.87 228.98 329.11 144.51 183.83 144.51 203.89 84.53 399 84.53 426.97 .05 124.84 .05 0 373.44 100.51 373.44 135.53 288.97"/><polygon class="cls-3" points="713.19 .12 605.96 0 529.45 228.91 636.13 229.04 713.19 .12"/><polygon class="cls-3" points="749.08 .05 623.38 373.44 734.5 373.44 856.37 .05 749.08 .05"/><polygon class="cls-1" points="904.44 288.97 972.79 84.53 1166.5 84.53 1194.74 .05 892.31 .05 770.44 373.44 1166.76 373.44 1195 288.97 904.44 288.97"/></svg>