<?xml version="1.0" encoding="UTF-8"?><svg id="Layer_1" xmlns="http://www.w3.org/2000/svg" viewBox="0 0 1195 373.44"><defs><style>.cls-1{fill:#020302;}</style></defs><polygon class="cls-1" points="462.84 .05 366.24 288.97 135.53 288.97 155.59 228.98 300.87 228.98 329.11 144.51 183.83 144.51 203.89 84.53 399 84.53 426.97 .05 124.84 .05 0 373.44 48.13 373.44 100.51 373.44 445.29 373.44 570.13 .05 462.84 .05"/><polygon class="cls-1" points="713.19 .12 605.96 0 529.45 228.91 636.13 229.04 713.19 .12"/><polygon class="cls-1" points="749.08 .05 623.38 373.44 734.5 373.44 856.37 .05 749.08 .05"/><polygon class="cls-1" points="904.44 288.97 972.79 84.53 1166.5 84.53 1194.74 .05 892.31 .05 770.44 373.44 1166.76 373.44 1195 288.97 904.44 288.97"/></svg>